<?xml version="1.0" standalone="no"?>
<!DOCTYPE svg PUBLIC "-//W3C//DTD SVG 20010904//EN"
 "http://www.w3.org/TR/2001/REC-SVG-20010904/DTD/svg10.dtd">
<svg version="1.0" xmlns="http://www.w3.org/2000/svg"
 width="700.000000pt" height="700.000000pt" viewBox="0 0 700.000000 700.000000"
 preserveAspectRatio="xMidYMid meet">
<metadata>
Created by potrace 1.11, written by Peter Selinger 2001-2013
</metadata>
<g transform="translate(0.000000,700.000000) scale(0.100000,-0.100000)"
fill="#000000" stroke="none">
<path d="M3315 6074 c-615 -51 -1173 -302 -1604 -720 -306 -296 -518 -629
-656 -1034 -24 -69 -49 -151 -56 -182 -7 -32 -18 -58 -24 -58 -7 0 -79 14
-160 30 -81 17 -154 30 -162 30 -7 0 109 -183 258 -407 150 -225 273 -409 274
-411 1 -1 188 120 414 269 258 170 407 275 399 279 -7 4 -80 20 -162 36 -89
17 -150 34 -153 41 -6 15 37 160 74 248 267 643 813 1066 1503 1165 109 16
371 16 480 0 275 -39 535 -133 760 -273 405 -253 710 -677 825 -1147 9 -36 18
-70 20 -76 2 -8 116 16 339 71 185 45 338 84 341 86 7 7 -50 217 -88 324 -136
388 -350 720 -648 1009 -392 380 -889 622 -1439 701 -104 15 -439 27 -535 19z"/>
<path d="M5397 3407 c-255 -169 -403 -273 -395 -277 7 -4 80 -20 162 -36 89
-17 150 -34 153 -41 3 -8 -7 -53 -22 -101 -98 -316 -295 -626 -533 -838 -48
-43 -89 -80 -91 -81 -7 -4 73 -105 144 -181 104 -112 335 -292 375 -292 22 0
249 233 336 345 186 237 320 485 419 775 24 69 49 151 56 183 7 31 18 57 24
57 7 0 79 -13 160 -30 81 -16 154 -30 162 -30 7 0 -110 184 -259 410 -150 225
-275 409 -278 409 -3 -1 -189 -123 -413 -272z"/>
<path d="M1312 3065 c-183 -45 -334 -84 -337 -86 -7 -7 50 -216 88 -324 136
-388 350 -720 648 -1009 394 -382 883 -620 1445 -702 86 -13 182 -18 344 -18
235 0 366 13 554 56 85 19 281 75 299 85 4 3 -55 70 -133 149 -128 132 -297
341 -336 416 -13 24 -20 28 -42 24 -157 -31 -429 -38 -582 -16 -553 79 -1015
366 -1319 819 -124 184 -241 458 -276 645 -4 20 -10 38 -14 39 -3 2 -156 -33
-339 -78z"/>
<path d="M3931 2626 c-179 -45 -326 -87 -328 -93 -6 -18 35 -168 83 -308 204
-585 620 -1081 1159 -1382 296 -165 679 -285 988 -309 87 -7 87 -7 87 17 0 13
16 168 34 344 18 176 31 323 29 328 -2 4 -19 7 -36 7 -51 0 -225 28 -310 50
-334 86 -660 275 -878 508 -235 250 -403 568 -473 895 -4 15 -12 27 -19 26 -6
0 -158 -38 -336 -83z"/>
</g>
</svg>
